<?xml version="1.0" encoding="iso-8859-1"?>
<!-- Generator: Adobe Illustrator 19.0.0, SVG Export Plug-In . SVG Version: 6.00 Build 0)  -->
<svg version="1.1" id="Capa_1" xmlns="http://www.w3.org/2000/svg" xmlns:xlink="http://www.w3.org/1999/xlink" x="0px" y="0px"
	 viewBox="0 0 512 512" style="enable-background:new 0 0 512 512;" xml:space="preserve">
<path style="fill:#54E360;" d="M511.997,175.285c-0.13,9.832-4.081,19.023-11.132,25.874l-244.87,238.349l-52.239,50.848
	c-0.41,0.4-0.83,0.77-1.26,1.13l-0.14,0.13c-0.4,0.36-0.8,0.71-1.21,1.04c-0.46,0.37-0.92,0.71-1.39,1.05l-0.26,0.19
	c-0.43,0.31-0.86,0.62-1.31,0.91c-0.49,0.32-0.99,0.62-1.49,0.9l-0.26,0.16c-0.45,0.27-0.91,0.53-1.37,0.77
	c-0.53,0.28-1.06,0.52-1.59,0.76l-0.25,0.11c-0.47,0.22-0.94,0.43-1.41,0.62c-0.58,0.24-1.15,0.44-1.73,0.63l-0.19,0.06
	c-0.49,0.18-0.96,0.34-1.43,0.48c-0.65,0.19-1.29,0.34-1.94,0.49l-0.1,0.02c-0.49,0.13-0.93,0.23-1.38,0.32
	c-0.92,0.17-1.7,0.27-2.29,0.34c-0.41,0.07-0.79,0.12-1.18,0.15c-1.16,0.11-2.33,0.17-3.491,0.17c-1.18,0-2.37-0.06-3.551-0.17
	c-0.41-0.04-0.82-0.1-1.24-0.16c-0.58-0.08-1.37-0.18-2.29-0.36c-0.46-0.09-0.93-0.2-1.4-0.32l-0.11-0.03
	c-0.66-0.15-1.31-0.31-1.95-0.5c-0.5-0.15-0.97-0.31-1.43-0.48l-0.22-0.08c-0.59-0.2-1.18-0.41-1.77-0.65
	c-0.46-0.19-0.94-0.41-1.42-0.64l-0.26-0.12c-0.54-0.25-1.08-0.5-1.6-0.78c-0.47-0.25-0.95-0.53-1.42-0.81l-0.26-0.16
	c-0.5-0.29-1-0.59-1.49-0.92c-0.45-0.3-0.9-0.63-1.35-0.97l-0.27-0.2c-0.46-0.34-0.92-0.68-1.37-1.05
	c-0.42-0.35-0.84-0.73-1.25-1.11l-0.13-0.12c-0.44-0.39-0.85-0.76-1.25-1.16L10.764,348.713c-14.352-14.352-14.352-37.696,0-52.049
	c6.951-6.951,16.193-10.782,26.024-10.782s19.073,3.831,26.024,10.782l115.619,115.619l77.563-75.492L449.526,148.42
	c14.552-14.162,37.896-13.842,52.049,0.7C508.426,156.162,512.137,165.453,511.997,175.285z"/>
<g>
	<path style="fill:#D7E3FF;" d="M196.281,213.707c-15.366-8.432-27.945-21.011-36.377-36.375c-3.077-5.609-8.962-9.094-15.361-9.094
		c-0.001,0-0.001,0-0.001,0c-6.397,0-12.284,3.484-15.363,9.092c-8.432,15.366-21.011,27.945-36.378,36.378
		c-5.609,3.079-9.092,8.965-9.091,15.364c0,6.397,3.486,12.284,9.092,15.36c15.366,8.432,27.945,21.011,36.378,36.378
		c3.079,5.609,8.965,9.092,15.364,9.091c6.397,0,12.284-3.486,15.36-9.092c8.433-15.367,21.012-27.946,36.378-36.378
		c5.608-3.077,9.092-8.962,9.092-15.36C205.374,222.674,201.89,216.786,196.281,213.707z"/>
	<path style="fill:#D7E3FF;" d="M355.401,162.063c0,6.391-3.491,12.282-9.091,15.353c-15.373,8.431-27.945,21.013-36.386,36.386
		c-3.071,5.601-8.961,9.091-15.353,9.091c-0.01,0-0.01,0-0.01,0c-6.401,0-12.282-3.491-15.362-9.101
		c-5.871-10.702-13.762-20.063-23.204-27.595c-4.101-3.291-8.501-6.231-13.162-8.781c-5.611-3.071-9.102-8.961-9.102-15.353
		c0-6.401,3.491-12.292,9.091-15.363c4.661-2.56,9.061-5.501,13.172-8.781c9.442-7.541,17.333-16.893,23.214-27.605
		c3.07-5.601,8.951-9.091,15.353-9.091c0,0,0,0,0.01,0c6.391,0,12.282,3.491,15.353,9.091c8.441,15.373,21.013,27.955,36.386,36.386
		C351.91,149.771,355.401,155.662,355.401,162.063z"/>
	<path style="fill:#D7E3FF;" d="M226.286,56.681c-15.366-8.432-27.945-21.011-36.377-36.375c-3.077-5.609-8.962-9.094-15.361-9.094
		c-0.001,0-0.001,0-0.001,0c-6.397,0-12.284,3.484-15.363,9.092c-8.432,15.366-21.011,27.945-36.378,36.378
		c-5.609,3.079-9.092,8.965-9.091,15.364c0,6.397,3.486,12.284,9.092,15.36c15.366,8.432,27.945,21.011,36.378,36.378
		c3.079,5.609,8.965,9.092,15.364,9.091c6.397,0,12.284-3.486,15.36-9.092c8.433-15.367,21.012-27.946,36.378-36.378
		c5.608-3.078,9.092-8.962,9.092-15.36C235.379,65.648,231.895,59.76,226.286,56.681z"/>
</g>
<path style="fill:#00CC71;" d="M511.997,175.285c-0.13,9.832-4.081,19.023-11.132,25.874l-244.87,238.349V336.791L449.526,148.42
	c14.552-14.162,37.896-13.842,52.049,0.7C508.426,156.162,512.137,165.453,511.997,175.285z"/>
<path style="fill:#B5BFF7;" d="M355.401,162.063c0,6.391-3.491,12.282-9.091,15.353c-15.373,8.431-27.945,21.013-36.386,36.386
	c-3.071,5.601-8.961,9.091-15.353,9.091c-0.01,0-0.01,0-0.01,0c-6.401,0-12.282-3.491-15.362-9.101
	c-5.871-10.702-13.762-20.063-23.204-27.595v-48.278c9.442-7.541,17.333-16.893,23.214-27.605c3.07-5.601,8.951-9.091,15.353-9.091
	c0,0,0,0,0.01,0c6.391,0,12.282,3.491,15.353,9.091c8.441,15.373,21.013,27.955,36.386,36.386
	C351.91,149.771,355.401,155.662,355.401,162.063z"/>
<g>
</g>
<g>
</g>
<g>
</g>
<g>
</g>
<g>
</g>
<g>
</g>
<g>
</g>
<g>
</g>
<g>
</g>
<g>
</g>
<g>
</g>
<g>
</g>
<g>
</g>
<g>
</g>
<g>
</g>
</svg>
